<svg xmlns="http://www.w3.org/2000/svg" width="1937.30005" height="756.10012" viewBox="0 0 1937.30005 756.10012">
  <title>logo</title>
  <g>
    <g>
      <path d="M31.2,189.1c0,97.2,129.7,176.2,288.9,176.2S609,286.3,609,189.1,479.7,12.9,320.2,12.9C161,13.2,31.2,91.9,31.2,189.1Zm5.4,0c0-93.9,127.3-170.6,283.6-170.6S603.8,94.8,603.8,189.1c0,93.9-127.3,170.6-283.6,170.6S36.6,283,36.6,189.1Z" transform="translate(-9.5 -12.9)" fill="#0f5c7a"/>
      <path d="M138.9,189.1c0,97.2,81.4,176.2,181.3,176.2s181.3-79,181.3-176.2S420.1,12.9,320.2,12.9C220.3,13.2,138.9,91.9,138.9,189.1Zm5.4,0c0-93.9,79-170.6,175.9-170.6S496.1,94.8,496.1,189.1c0,93.9-79,170.6-175.9,170.6S144.3,283,144.3,189.1Z" transform="translate(-9.5 -12.9)" fill="#0f5c7a"/>
      <rect x="27.4" y="142.49999" width="567.70004" height="5.10001" fill="#0f5c7a"/>
      <rect x="79" y="68.9" width="458.59998" height="5.1" fill="#0f5c7a"/>
      <rect x="53.4" y="245.1" width="517.6" height="5.70001" fill="#0f5c7a"/>
      <rect x="308" y="3" width="5.10001" height="346.49999" fill="#0f5c7a"/>
      <path d="M273.1,687.7H118.6l37.3-91.5c6.9-24.5-6.9-37.6-6.9-37.6l-100.5-96C19,445.6,19,370.1,19,370.1L12.1,260.7c19.1-34,43.2,7.5,43.2,7.5,1.8,54.6,29.5,111.2,29.5,111.2,34.6,67.7,90.1,73.4,90.1,73.4L136.7,400c-15.5-22.7-1.8-37.6-1.8-37.6,20.9-17,38.2,5.7,38.2,5.7L301,490.7c12.2,5.7-5.1,73.7-5.1,73.7Z" transform="translate(-9.5 -12.9)" fill="#0f5c7a"/>
      <path d="M29.2,244.6c-7.5,0-13.7,5.1-19.4,14.6l-.3.9,6.9,110.3c0,3.9.6,76.3,30.4,94.2l100.2,96c.3.3,8.1,8.1,8.1,22.1a51.47378,51.47378,0,0,1-1.8,12.5l-38.8,95.1H274.9l23.3-125.8c4.2-16.4,16.7-70.4,3.6-76.6l.6.3-128-122.6s-18.8-24.2-41.4-5.7a29.97772,29.97772,0,0,0-6.6,19.1c0,6.3,1.8,14,7.8,22.7,0,0,27.1,37.6,34,46.8-15.5-3.9-54.9-18.5-81.4-70.7-.3-.6-27.4-56.7-29.2-110v-.9l-.3-.6C57.2,265.7,44.4,244.6,29.2,244.6Zm0,5.6c11.3,0,22.1,16.1,23.6,19.1,2.1,54.6,29.5,110.9,29.8,111.5,34.9,68.3,91.5,74.8,92.1,75.1l6,.6L139,398.7c-14-20.3-2.4-33.4-1.8-34,18.2-14.9,33.7,4.8,34.3,5.4L300,493.2l.3.3c2.1.9,2.7,5.1,2.7,11.3,0,13.7-3.9,37.3-9.5,58.7,0,0-21.8,116.9-22.7,121.4H122.6c3-7.2,35.5-87.4,35.5-87.4a53.54752,53.54752,0,0,0,2.1-14.6c0-17-9.2-25.9-9.8-26.5L49.7,460.2l-.3-.3c-27.7-16.1-28-89.2-28-89.8,0,0-6.9-106.5-6.9-108.5C19.3,254.1,24.1,250.2,29.2,250.2Z" transform="translate(-9.5 -12.9)" fill="#0f5c7a"/>
      <path d="M582.6,270.5l-.3.6v.9c-1.8,53.4-28.9,109.4-29.2,110-26.5,52.2-65.9,66.8-81.4,70.7,6.6-9.2,33.7-46.8,33.7-46.8,6-8.6,8.1-16.4,8.1-22.7a31.43358,31.43358,0,0,0-6.3-18.8c-22.7-18.5-41.7,5.7-41.7,6L337.8,492.7l.6-.6c-13.1,6.3-.6,60.5,3.6,76.9l22.4,121.7H522l-35.2-91.5A48.01214,48.01214,0,0,1,485,587c0-14.3,7.8-21.8,8.1-22.1l100.2-96c30.1-18.2,30.4-91.2,30.4-94.5l6.9-110-.6-.9c-5.4-9.5-11.9-14.6-19.1-14.6C596,248.2,583.2,269.6,582.6,270.5Zm28.6-16.4c5.4,0,10.1,3.9,14.3,11.3,0,2.1-6.9,108.2-6.9,108.2,0,.9-.3,73.9-28,90.1l-.3.3L489.8,560.3c-.6.6-9.8,9.5-9.8,26.5a53.13141,53.13141,0,0,0,2.1,14.3s29.5,76.9,32.2,84.1H368.5c-.9-4.5-21.5-117.5-21.5-117.5-5.7-21.8-9.5-45.3-9.5-59,0-6.3.9-10.4,2.7-11.3l.3-.3L468.7,374.3c.9-1.2,16.4-20.6,34.9-5.7.3.3,11.6,13.4-2.4,33.7l-41.7,57.8,6-.6c.6,0,57.3-6.6,91.8-74.8.3-.6,27.7-57.3,29.8-111.5C589.1,270.2,599.9,253.8,611.2,254.1Z" transform="translate(-9.5 -12.9)" fill="#0f5c7a"/>
      <path d="M193.5,307.8l-24.7-1.2c-4.5-3.3-1.8-8.9-1.8-8.9l8.6-1.2c18.8-46.8,10.4-70.7,10.4-70.7l-11.3-42.6c-1.8-12.8,3.3-16.4,3.3-16.4,4.2-23,21.2-31.9,21.2-31.9v-4.2c-11.9.6-11.3-15.5-11.3-15.5,2.4-18.2,20-23,20-23,14.3,4.2,11.3,33.4,11.3,33.4a45.43252,45.43252,0,0,0-6.3,3.3c-1.8,4.2.6,4.8.6,4.8,24.2,7.5,18.8,7.5,18.8,7.5,3,27.1,11.9,38.2,11.9,38.2,10.7-22.4,13.1-61.1,13.1-61.1a39.45227,39.45227,0,0,1,25-24.5l2.4-9.5c-5.1.6-8.1-10.1-8.1-10.1-2.4-21.2,3.6-27.1,3.6-27.1,12.5-10.7,21.2-4.2,21.2-4.2,11.3,17,4.2,35.2,4.2,35.2l-6.3,2.7.6,8.1c16.7,4.8,31.6,34.6,31.6,34.6,5.7-11.6,23-22.4,23-22.4l1.8-7.5A14.65933,14.65933,0,0,1,342,84.1c6.9-29.2,22.4-27.7,22.4-27.7,20.6,2.7,23,14.9,23,14.9,1.8,18.2-3,25-3,25a90.90612,90.90612,0,0,0-12.5,1.5l.6,10.7a27.62682,27.62682,0,0,1,14.9,11c5.1,43.2,8.6,37.3,8.6,37.3,5.1,15.5,14.9,28.6,14.9,28.6l17.3-12.8,3.3-.6-.6-4.8a10.35785,10.35785,0,0,1-11.3-2.1c-3-20.3-.6-22.4-.6-22.4,9.2-10.1,17.6-9.5,17.6-9.5,13.7.6,14.9,9.5,14.9,9.5,3,18.2,0,23,0,23-3,2.7-10.1,2.7-10.1,2.7l10.1,9.5,11.9,28.6c-1.8,12.8-6.3,17.6-6.3,17.6l-2.7,4.2,8.6,34.6-16.1,4.8-2.4,33.4c5.1,1.2,5.1,5.4,5.1,5.4l-1.2,5.4-6.9,2.1-4.5-2.1V271h-6.9l-.6,27.7.6,5.4-.6,8.9-6.9,2.1-4.2,1.5-1.8-4.2,3-4.2,2.4-4.2.6-4.8-2.4-31.9-18.2-.6,14.9-40c8.6-17,5.7-22.4,5.7-22.4l-13.7,2.1c-9.8-6.9-26.2-44.7-26.2-44.7-6.3,10.7-9.2,23.9-9.2,23.9,11.3,16.4,14.3,42.6,14.3,42.6l1.2,35.2-15.5.6L369,306.6,384,320c1.8,4.2-6.3,6.9-6.3,6.9l-14.9-10.1-16.7,8.1c-9.2,2.7-11.3-4.8-11.3-4.8l13.7-11.6-3-46.2-25.6.6c5.7-51.6,18.8-67.1,18.8-67.1a30.99418,30.99418,0,0,0-3-30.4l-7.5-3.3A137.307,137.307,0,0,1,310,186l.6,61.7s-4.2-14.9-1.2-2.7-.6,30.4-.6,30.4L307,316.3l9.2,17c1.2,3.3-3.9,6-3.9,6L286.1,325l-.6-75.4c-2.4-8.1-5.1-5.4-5.1-5.4l-5.7,8.1,1.2,73.4H245.5c-2.4-6.9,11.3-11.6,11.3-11.6L253.2,196l-9.2,4.8-4.5,1.2-4.2-3.3-4.5-2.7-3.9,11.6-.6,19.7.6,7.5-5.7,1.5-.6,12.2L220,264l-2.4,6.9-3,11.6.6,10.7,2.4,2.1,3.9,2.7,5.7,2.1,1.8,2.7-1.2,4.2-7.5.6-13.1-1.5h-5.1l-1.2-10.1v-11.6l.6-14.9-2.4-1.5-3,12.8Z" transform="translate(-9.5 -12.9)" fill="#0f5c7a"/>
      <path d="M366.4,687.7H518.2L484.5,600c-6.9-24.5,6.9-37.6,6.9-37.6l100.2-96C621,449.4,621,374,621,374l6.9-109.4c-19.1-34-43.2,7.5-43.2,7.5-1.8,54.6-29.5,111.2-29.5,111.2-34.6,68-90.1,73.4-90.1,73.4l38.2-52.8c15.5-22.7,1.8-37.6,1.8-37.6-20.9-17-38.2,5.7-38.2,5.7L339,494.5c-12.2,5.7,5.1,73.7,5.1,73.7Z" transform="translate(-9.5 -12.9)" fill="#0f5c7a"/>
    </g>
    <g>
      <path d="M114.7,768.9V708.2h8.5v60.7Z" transform="translate(-9.5 -12.9)" fill="#9fa2b7"/>
      <path d="M162.8,743.1v25.7h-8.4V708.1h16c7.6,0,13.3,1.4,17.2,4.3s5.9,7.2,5.9,12.9c0,4.2-1.1,7.7-3.3,10.3s-5.5,4.6-9.9,6l16.4,27.2h-10l-14.5-25.7Zm18.4-9.1c2.2-1.8,3.4-4.7,3.4-8.7,0-3.8-1.1-6.5-3.4-8.2s-5.9-2.5-10.9-2.5h-7.5v22h8.5C175.6,736.7,179,735.8,181.2,734Z" transform="translate(-9.5 -12.9)" fill="#9fa2b7"/>
      <path d="M229.7,714.8v19.8h20.5v6.7H229.7v20.8h25.2v6.7H221.3V708.1h32.9l-1,6.7Z" transform="translate(-9.5 -12.9)" fill="#9fa2b7"/>
      <path d="M315.4,761.5l-1,7.3H282V708.1h8.4v53.4Z" transform="translate(-9.5 -12.9)" fill="#9fa2b7"/>
      <path d="M344.3,753.6l-4.6,15.3h-8.5l19.5-60.7h10.6l19.4,60.7h-8.8l-4.6-15.3Zm11.5-38.5-9.5,31.7h19Z" transform="translate(-9.5 -12.9)" fill="#9fa2b7"/>
      <path d="M435,768.9l-24.7-51.6c.4,4.1.6,7.8.8,11.2s.3,7.6.3,12.5v27.9h-7.8v-60.7h10.9l24.9,51.7c-.2-1.5-.4-4.2-.7-8s-.4-7.3-.4-10.5v-33.1h7.8v60.7H435Z" transform="translate(-9.5 -12.9)" fill="#9fa2b7"/>
      <path d="M512.2,714.5c5.6,4.3,8.3,12.2,8.3,23.7,0,11.2-2.8,19.1-8.3,23.8a30.74075,30.74075,0,0,1-20.2,6.9H477.5V708.2h12.7C499.3,708.1,506.6,710.2,512.2,714.5Zm-26.4,47.7h6.8c5.6,0,10.2-1.7,13.8-5.2,3.5-3.5,5.3-9.8,5.3-18.9,0-6.4-.9-11.3-2.7-14.8a14.16306,14.16306,0,0,0-7-6.9,25.56244,25.56244,0,0,0-10-1.7h-6.2V762.2Z" transform="translate(-9.5 -12.9)" fill="#9fa2b7"/>
    </g>
    <g>
      <path d="M845.30418,516.05493c-10.63054,14.5984-25.22845,20.469-41.73055,20.469-34.27283,0-58.07364-24.75339-58.07364-59.02573,0-34.27332,23.80081-59.02573,58.07364-59.02573,15.23248,0,28.8783,5.07749,38.71625,17.61172l-8.56833,7.14068c-6.98167-10.472-18.88232-15.23248-30.14792-15.23248-29.35434,0-47.60112,21.5791-47.60112,49.5058,0,27.92572,18.24678,49.50481,47.60112,49.50481,11.26559,0,25.22894-5.39453,33.16271-17.4537Z" transform="translate(-9.5 -12.9)" fill="#0f5c7a"/>
      <path d="M874.024,421.32775h29.51286c8.88586,0,39.98538,0,39.98538,29.51286,0,21.42107-16.34309,27.29164-28.71929,28.87879l32.68617,53.94823H935.58893l-31.57605-53.31318h-19.5164v53.31318H874.024Zm10.47251,49.5058h22.21415c22.05514,0,26.33955-12.21719,26.33955-19.99293,0-7.77476-4.28441-19.992-26.33955-19.992H884.49648Z" transform="translate(-9.5 -12.9)" fill="#0f5c7a"/>
      <path d="M977.635,421.32775h68.70467v9.52091H988.10706v39.98488h54.58329v9.52091H988.10706v43.79325h60.77188v9.51993H977.635Z" transform="translate(-9.5 -12.9)" fill="#0f5c7a"/>
      <path d="M1079.819,421.32775h34.74838c58.39165,0,60.77188,47.91963,60.77188,56.17043s-2.38023,56.16945-60.77188,56.16945H1079.819Zm10.472,102.82h21.5791c29.83088,0,52.99712-14.4394,52.99712-46.64952,0-32.21111-23.16624-46.64952-52.99712-46.64952H1090.291Z" transform="translate(-9.5 -12.9)" fill="#0f5c7a"/>
      <path d="M1208.34342,421.32775h10.472V533.66764h-10.472Z" transform="translate(-9.5 -12.9)" fill="#0f5c7a"/>
      <path d="M1284.02878,430.84866h-38.39872v-9.52091h87.26946v9.52091H1294.5008v102.819h-10.472Z" transform="translate(-9.5 -12.9)" fill="#0f5c7a"/>
      <path d="M1490.3008,490.66747c0,23.95933-10.314,45.85644-40.938,45.85644-30.623,0-40.937-21.89712-40.937-45.85644V421.32775h10.472V487.9702c0,16.02556,4.28441,39.03279,30.465,39.03279,26.18152,0,30.465-23.00723,30.465-39.03279V421.32775h10.473Z" transform="translate(-9.5 -12.9)" fill="#0f5c7a"/>
      <path d="M1528.54051,421.32775h13.48632l68.38763,98.37654h.318V421.32775h10.472V533.66764h-13.4873l-68.38763-98.37654h-.317v98.37654h-10.472Z" transform="translate(-9.5 -12.9)" fill="#0f5c7a"/>
      <path d="M1661.50838,421.32775h10.472V533.66764h-10.472Z" transform="translate(-9.5 -12.9)" fill="#0f5c7a"/>
      <path d="M1763.05725,418.47246c34.27234,0,58.07364,24.75241,58.07364,59.02573,0,34.27234-23.8013,59.02573-58.07364,59.02573-34.27332,0-58.07462-24.75339-58.07462-59.02573C1704.98263,443.22486,1728.78393,418.47246,1763.05725,418.47246Zm0,108.53054c29.35385,0,47.60161-21.5791,47.60161-49.50481,0-27.9267-18.24776-49.5058-47.60161-49.5058-29.35484,0-47.60161,21.5791-47.60161,49.5058C1715.45564,505.4239,1733.70242,527.003,1763.05725,527.003Z" transform="translate(-9.5 -12.9)" fill="#0f5c7a"/>
      <path d="M1854.13606,421.32775h13.48632L1936.01,519.70429h.318V421.32775H1946.8V533.66764h-13.4873l-68.38763-98.37654h-.317v98.37654h-10.472Z" transform="translate(-9.5 -12.9)" fill="#0f5c7a"/>
      <path d="M752.79871,576.85135h10.47251v102.82H815.6328v9.51993H752.79871Z" transform="translate(-9.5 -12.9)" fill="#0f5c7a"/>
      <path d="M841.65532,576.85135h10.47251V689.19124H841.65532Z" transform="translate(-9.5 -12.9)" fill="#0f5c7a"/>
      <path d="M891.31914,576.85135h15.70852l40.93747,94.25114,40.937-94.25114h14.91544V689.19124h-10.472V590.18063h-.318l-42.84116,99.01061H945.5849l-43.47621-99.01061h-.317v99.01061H891.31914Z" transform="translate(-9.5 -12.9)" fill="#0f5c7a"/>
      <path d="M1043.00935,576.85135h10.472V689.19124h-10.472Z" transform="translate(-9.5 -12.9)" fill="#0f5c7a"/>
      <path d="M1118.69569,586.37226H1080.297v-9.52091h87.26946v9.52091h-38.39872v102.819h-10.472Z" transform="translate(-9.5 -12.9)" fill="#0f5c7a"/>
      <path d="M1194.381,576.85135h68.70466v9.52091h-58.23264v39.98488h54.58329v9.51993h-54.58329v43.79423h60.7709v9.51993H1194.381Z" transform="translate(-9.5 -12.9)" fill="#0f5c7a"/>
      <path d="M1296.564,576.85135h34.74838c58.39165,0,60.77188,47.91963,60.77188,56.17043s-2.38023,56.16945-60.77188,56.16945H1296.564Zm10.472,102.82h21.5791c29.83088,0,52.99712-14.43939,52.99712-46.64952,0-32.21111-23.16624-46.64952-52.99712-46.64952H1307.036Z" transform="translate(-9.5 -12.9)" fill="#0f5c7a"/>
    </g>
  </g>
  <g>
    <path d="M897.9,340.7A104.79748,104.79748,0,0,0,948.6,328v49.5a151.07121,151.07121,0,0,1-50.7,8.8q-63,0-107.7-44.7T745.5,233.9q0-63,44.7-107.7T897.9,81.5a153.40746,153.40746,0,0,1,50.7,8.6v49.7a103.877,103.877,0,0,0-50.7-12.9q-44.25,0-75.6,31.5-31.35,31.35-31.3,75.6,0,44.25,31.3,75.6C843.2,330.5,868.4,340.7,897.9,340.7Z" transform="translate(-9.5 -12.9)" fill="#0f5c7a"/>
    <path d="M1206.2,84.6V383.3h-45.5V313.6h-101.4l-44,69.7H961.7L1150.6,84.6h55.6ZM1087.8,268.3h72.8v-115Z" transform="translate(-9.5 -12.9)" fill="#0f5c7a"/>
    <path d="M1257.7,383.3V84.6h93.7c23.7,0,43.8,8.3,60.5,25q25.04993,25.2,25,60.5a83.0919,83.0919,0,0,1-20.2,55.3,83.75162,83.75162,0,0,1,27.1,30.5,82.73867,82.73867,0,0,1,10.4,40.7q0,35.85-25.5,61.2c-16.8,17-37.2,25.5-61,25.5h-110ZM1303,210.4h48.4a40.63381,40.63381,0,0,0,40.3-40.3,40.63381,40.63381,0,0,0-40.3-40.3H1303Zm0,127.6h64.9a39.43073,39.43073,0,0,0,29-12.1,40.31643,40.31643,0,0,0,11.9-29.2,40.97023,40.97023,0,0,0-40.9-40.9H1303Z" transform="translate(-9.5 -12.9)" fill="#0f5c7a"/>
    <path d="M1701.1,383.3H1650l-65.3-125.9h-51.1V383.3h-45.3V84.6h110.2q35.70007,0,61,25.5,25.5,25.2,25.5,61.2a83.24039,83.24039,0,0,1-14.8,48,85.4002,85.4002,0,0,1-37.8,31.3ZM1598.4,212.1a40.97023,40.97023,0,0,0,40.9-40.9,40.15317,40.15317,0,0,0-11.9-29.2,39.43073,39.43073,0,0,0-29-12.1h-64.9v82.2h64.9Z" transform="translate(-9.5 -12.9)" fill="#0f5c7a"/>
    <path d="M1946.8,84.6V383.3h-45.5V313.6H1799.9l-44,69.7h-53.6l188.9-298.7h55.6ZM1828.4,268.3h72.8v-115Z" transform="translate(-9.5 -12.9)" fill="#0f5c7a"/>
  </g>
</svg>
